<?xml version="1.0" encoding="UTF-8"?>
<!DOCTYPE svg PUBLIC "-//W3C//DTD SVG 1.1//EN" "http://www.w3.org/Graphics/SVG/1.1/DTD/svg11.dtd">
<svg xmlns="http://www.w3.org/2000/svg" version="1.1" width="1210px" height="880px" style="shape-rendering:geometricPrecision; text-rendering:geometricPrecision; image-rendering:optimizeQuality; fill-rule:evenodd; clip-rule:evenodd" xmlns:xlink="http://www.w3.org/1999/xlink">
<g><path style="opacity:1" fill="#000000" d="M -0.5,-0.5 C 402.833,-0.5 806.167,-0.5 1209.5,-0.5C 1209.5,292.833 1209.5,586.167 1209.5,879.5C 806.167,879.5 402.833,879.5 -0.5,879.5C -0.5,586.167 -0.5,292.833 -0.5,-0.5 Z"/></g>
<g><path style="opacity:1" fill="#962018" d="M 292.5,364.5 C 284.048,364.098 275.715,364.765 267.5,366.5C 269.277,365.4 271.277,364.566 273.5,364C 280.014,363.18 286.347,363.347 292.5,364.5 Z"/></g>
<g><path style="opacity:1" fill="#ce2c20" d="M 292.5,364.5 C 307.315,367.662 317.982,375.995 324.5,389.5C 325.256,393.767 326.589,397.767 328.5,401.5C 328.924,409.638 328.091,417.638 326,425.5C 320.495,433.84 315.495,442.507 311,451.5C 309.649,457.072 309.149,462.738 309.5,468.5C 317.059,467.28 322.559,469.947 326,476.5C 327.011,480.982 325.844,484.816 322.5,488C 327.39,492.512 327.724,497.345 323.5,502.5C 327.5,507.167 327.5,511.833 323.5,516.5C 328.069,522.915 327.069,528.415 320.5,533C 310.833,533.667 301.167,533.667 291.5,533C 286.082,528.345 285.082,522.845 288.5,516.5C 285.978,511.739 285.978,507.072 288.5,502.5C 287.692,500.075 286.692,497.742 285.5,495.5C 281.889,499.139 277.556,501.472 272.5,502.5C 278.125,508.704 280.792,516.037 280.5,524.5C 278.833,524.5 277.167,524.5 275.5,524.5C 275.768,522.901 275.434,521.568 274.5,520.5C 273.948,516.965 272.782,513.632 271,510.5C 268.486,506.794 265.986,503.127 263.5,499.5C 263.608,498.558 263.941,497.725 264.5,497C 269.139,495.872 273.805,494.872 278.5,494C 281.167,491.333 281.167,488.667 278.5,486C 272.167,485.333 265.833,485.333 259.5,486C 251.985,489.506 248.818,495.339 250,503.5C 253.064,509.96 256.397,516.293 260,522.5C 260.499,526.152 260.665,529.818 260.5,533.5C 258.833,533.5 257.167,533.5 255.5,533.5C 255.664,530.813 255.497,528.146 255,525.5C 249.627,517.861 246.127,509.528 244.5,500.5C 244.215,491.394 248.215,485.061 256.5,481.5C 257.823,478.062 258.49,474.229 258.5,470C 258.499,465.985 258.165,462.151 257.5,458.5C 257.59,455.848 256.924,453.515 255.5,451.5C 252.721,444.223 248.888,437.556 244,431.5C 232.197,406.596 237.364,386.096 259.5,370C 262.071,368.546 264.738,367.38 267.5,366.5C 275.715,364.765 284.048,364.098 292.5,364.5 Z"/></g>
<g><path style="opacity:1" fill="#090100" d="M 274.5,369.5 C 302.835,367.356 319.168,380.19 323.5,408C 322.811,416.4 320.311,424.233 316,431.5C 307.081,442.156 302.914,454.49 303.5,468.5C 291.125,467.043 285.625,472.376 287,484.5C 290.333,486.5 290.333,488.5 287,490.5C 286.385,485.217 283.551,481.717 278.5,480C 273.511,479.501 268.511,479.334 263.5,479.5C 266.295,460.999 261.795,444.666 250,430.5C 239.097,409.545 242.597,391.378 260.5,376C 265.034,373.333 269.7,371.166 274.5,369.5 Z"/></g>
<g><path style="opacity:1" fill="#162a1c" d="M 607.5,372.5 C 606.504,388.325 606.17,404.325 606.5,420.5C 609.167,420.5 611.833,420.5 614.5,420.5C 611.713,421.477 608.713,421.81 605.5,421.5C 605.167,404.82 605.501,388.153 606.5,371.5C 607.107,371.624 607.44,371.957 607.5,372.5 Z"/></g>
<g><path style="opacity:1" fill="#315f42" d="M 682.5,380.5 C 687.305,379.513 692.305,379.179 697.5,379.5C 697.5,377.167 697.5,374.833 697.5,372.5C 684.167,372.5 670.833,372.5 657.5,372.5C 657.5,374.833 657.5,377.167 657.5,379.5C 663.026,379.179 668.36,379.512 673.5,380.5C 667.833,380.5 662.167,380.5 656.5,380.5C 656.5,377.5 656.5,374.5 656.5,371.5C 670.5,371.5 684.5,371.5 698.5,371.5C 698.5,374.5 698.5,377.5 698.5,380.5C 693.167,380.5 687.833,380.5 682.5,380.5 Z"/></g>
<g><path style="opacity:1" fill="#2a5038" d="M 734.5,372.5 C 725.833,372.5 717.167,372.5 708.5,372.5C 708.5,388.5 708.5,404.5 708.5,420.5C 710.833,420.5 713.167,420.5 715.5,420.5C 715.177,413.978 715.51,407.645 716.5,401.5C 716.5,408.167 716.5,414.833 716.5,421.5C 713.5,421.5 710.5,421.5 707.5,421.5C 707.5,404.833 707.5,388.167 707.5,371.5C 716.682,371.173 725.682,371.507 734.5,372.5 Z"/></g>
<g><path style="opacity:1" fill="#15291c" d="M 858.5,371.5 C 859.497,387.992 859.83,404.658 859.5,421.5C 856.287,421.81 853.287,421.477 850.5,420.5C 853.167,420.5 855.833,420.5 858.5,420.5C 858.5,404.167 858.5,387.833 858.5,371.5 Z"/></g>
<g><path style="opacity:1" fill="#356546" d="M 915.5,373.5 C 901.343,372.504 887.01,372.171 872.5,372.5C 872.5,374.833 872.5,377.167 872.5,379.5C 881.525,379.168 890.525,379.502 899.5,380.5C 899.376,381.107 899.043,381.44 898.5,381.5C 889.682,380.507 880.682,380.173 871.5,380.5C 871.5,377.5 871.5,374.5 871.5,371.5C 886.515,371.167 901.515,371.501 916.5,372.5C 916.376,373.107 916.043,373.44 915.5,373.5 Z"/></g>
<g><path style="opacity:1" fill="#346445" d="M 927.5,372.5 C 938.321,371.505 949.321,371.172 960.5,371.5C 960.5,374.5 960.5,377.5 960.5,380.5C 952.167,380.5 943.833,380.5 935.5,380.5C 943.316,379.508 951.316,379.174 959.5,379.5C 959.5,377.167 959.5,374.833 959.5,372.5C 948.833,372.5 938.167,372.5 927.5,372.5 Z"/></g>
<g><path style="opacity:1" fill="#4b9064" d="M 431.5,372.5 C 444.354,375.353 451.02,383.353 451.5,396.5C 450.949,410.055 443.949,418.055 430.5,420.5C 424.167,420.5 417.833,420.5 411.5,420.5C 411.5,417.833 411.5,415.167 411.5,412.5C 418.508,412.666 425.508,412.5 432.5,412C 441.424,407.985 444.924,401.152 443,391.5C 440.429,385.317 435.929,381.651 429.5,380.5C 423.69,379.51 417.69,379.177 411.5,379.5C 411.5,377.167 411.5,374.833 411.5,372.5C 418.167,372.5 424.833,372.5 431.5,372.5 Z"/></g>
<g><path style="opacity:1" fill="#4c9265" d="M 463.5,371.5 C 474.167,371.5 484.833,371.5 495.5,371.5C 495.5,374.167 495.5,376.833 495.5,379.5C 487.316,379.174 479.316,379.508 471.5,380.5C 471.5,384.5 471.5,388.5 471.5,392.5C 478.5,392.5 485.5,392.5 492.5,392.5C 492.5,395.167 492.5,397.833 492.5,400.5C 485.5,400.5 478.5,400.5 471.5,400.5C 471.5,404.5 471.5,408.5 471.5,412.5C 479.5,412.5 487.5,412.5 495.5,412.5C 495.5,415.167 495.5,417.833 495.5,420.5C 484.833,420.5 474.167,420.5 463.5,420.5C 463.5,404.167 463.5,387.833 463.5,371.5 Z"/></g>
<g><path style="opacity:1" fill="#4a8f63" d="M 524.5,372.5 C 529.179,372.334 533.845,372.501 538.5,373C 542.012,374.254 545.012,376.254 547.5,379C 546.372,381.296 544.705,383.129 542.5,384.5C 530.781,377.31 521.615,379.643 515,391.5C 513.707,405.872 520.207,412.705 534.5,412C 537.211,411.227 539.711,410.06 542,408.5C 543.944,409.439 545.611,410.773 547,412.5C 547.507,413.996 547.007,415.163 545.5,416C 527.337,425.169 514.504,420.336 507,401.5C 505.254,387.112 511.087,377.445 524.5,372.5 Z"/></g>
<g><path style="opacity:1" fill="#4c9366" d="M 561.5,371.5 C 572.167,371.5 582.833,371.5 593.5,371.5C 593.5,374.167 593.5,376.833 593.5,379.5C 585.316,379.174 577.316,379.508 569.5,380.5C 569.5,384.5 569.5,388.5 569.5,392.5C 576.5,392.5 583.5,392.5 590.5,392.5C 590.5,395.167 590.5,397.833 590.5,400.5C 583.5,400.5 576.5,400.5 569.5,400.5C 569.5,404.5 569.5,408.5 569.5,412.5C 577.5,412.5 585.5,412.5 593.5,412.5C 593.5,415.167 593.5,417.833 593.5,420.5C 582.833,420.5 572.167,420.5 561.5,420.5C 561.5,404.167 561.5,387.833 561.5,371.5 Z"/></g>
<g><path style="opacity:1" fill="#4b9064" d="M 614.5,420.5 C 611.833,420.5 609.167,420.5 606.5,420.5C 606.17,404.325 606.504,388.325 607.5,372.5C 617.95,381.918 628.283,391.585 638.5,401.5C 639.499,391.522 639.832,381.522 639.5,371.5C 642.167,371.5 644.833,371.5 647.5,371.5C 647.667,387.837 647.5,404.17 647,420.5C 636.522,410.6 625.856,400.933 615,391.5C 614.5,401.161 614.334,410.828 614.5,420.5 Z"/></g>
<g><path style="opacity:1" fill="#4d9467" d="M 682.5,380.5 C 681.504,393.99 681.171,407.656 681.5,421.5C 678.833,421.5 676.167,421.5 673.5,421.5C 673.5,407.833 673.5,394.167 673.5,380.5C 668.36,379.512 663.026,379.179 657.5,379.5C 657.5,377.167 657.5,374.833 657.5,372.5C 670.833,372.5 684.167,372.5 697.5,372.5C 697.5,374.833 697.5,377.167 697.5,379.5C 692.305,379.179 687.305,379.513 682.5,380.5 Z"/></g>
<g><path style="opacity:1" fill="#4a9063" d="M 734.5,372.5 C 740.966,373.805 744.466,377.805 745,384.5C 746.014,392.469 742.848,398.136 735.5,401.5C 738.833,407.5 742.167,413.5 745.5,419.5C 742.554,420.655 739.554,420.821 736.5,420C 733.42,413.839 730.087,407.839 726.5,402C 723.183,401.502 719.85,401.335 716.5,401.5C 715.51,407.645 715.177,413.978 715.5,420.5C 713.167,420.5 710.833,420.5 708.5,420.5C 708.5,404.5 708.5,388.5 708.5,372.5C 717.167,372.5 725.833,372.5 734.5,372.5 Z"/></g>
<g><path style="opacity:1" fill="#498d62" d="M 778.5,372.5 C 787.314,388.124 795.647,404.124 803.5,420.5C 800.554,421.655 797.554,421.821 794.5,421C 792.959,418.084 791.293,415.251 789.5,412.5C 782.5,411.167 775.5,411.167 768.5,412.5C 767.167,415.167 765.833,417.833 764.5,420.5C 761.167,421.833 757.833,421.833 754.5,420.5C 762.513,404.473 770.513,388.473 778.5,372.5 Z"/></g>
<g><path style="opacity:1" fill="#4d9567" d="M 816.5,412.5 C 824.316,413.492 832.316,413.826 840.5,413.5C 840.5,415.833 840.5,418.167 840.5,420.5C 829.833,420.5 819.167,420.5 808.5,420.5C 808.5,404.167 808.5,387.833 808.5,371.5C 811.167,371.5 813.833,371.5 816.5,371.5C 816.5,385.167 816.5,398.833 816.5,412.5 Z"/></g>
<g><path style="opacity:1" fill="#4c9265" d="M 858.5,371.5 C 858.5,387.833 858.5,404.167 858.5,420.5C 855.833,420.5 853.167,420.5 850.5,420.5C 850.5,404.167 850.5,387.833 850.5,371.5C 853.167,371.5 855.833,371.5 858.5,371.5 Z"/></g>
<g><path style="opacity:1" fill="#4b9164" d="M 915.5,373.5 C 905.715,386.458 895.715,399.291 885.5,412C 894.494,412.5 903.494,412.666 912.5,412.5C 912.5,415.167 912.5,417.833 912.5,420.5C 897.99,420.829 883.657,420.496 869.5,419.5C 879.167,406.833 888.833,394.167 898.5,381.5C 899.043,381.44 899.376,381.107 899.5,380.5C 890.525,379.502 881.525,379.168 872.5,379.5C 872.5,377.167 872.5,374.833 872.5,372.5C 887.01,372.171 901.343,372.504 915.5,373.5 Z"/></g>
<g><path style="opacity:1" fill="#4e9667" d="M 927.5,372.5 C 938.167,372.5 948.833,372.5 959.5,372.5C 959.5,374.833 959.5,377.167 959.5,379.5C 951.316,379.174 943.316,379.508 935.5,380.5C 935.5,384.5 935.5,388.5 935.5,392.5C 942.5,392.5 949.5,392.5 956.5,392.5C 956.5,395.167 956.5,397.833 956.5,400.5C 949.5,400.5 942.5,400.5 935.5,400.5C 935.5,404.5 935.5,408.5 935.5,412.5C 943.316,413.492 951.316,413.826 959.5,413.5C 959.5,415.833 959.5,418.167 959.5,420.5C 948.833,420.5 938.167,420.5 927.5,420.5C 927.5,404.5 927.5,388.5 927.5,372.5 Z"/></g>
<g><path style="opacity:1" fill="#4a8f63" d="M 972.5,371.5 C 978.842,371.334 985.175,371.5 991.5,372C 1004.53,374.69 1011.86,382.69 1013.5,396C 1012.26,409.576 1004.93,417.909 991.5,421C 985.175,421.5 978.842,421.666 972.5,421.5C 972.5,404.833 972.5,388.167 972.5,371.5 Z"/></g>
<g><path style="opacity:1" fill="#c72b1f" d="M 225.5,372.5 C 231.125,373.417 231.792,375.751 227.5,379.5C 223.022,378.217 222.355,375.884 225.5,372.5 Z"/></g>
<g><path style="opacity:1" fill="#c0291e" d="M 337.5,372.5 C 340.833,371.833 342.833,373.167 343.5,376.5C 338.094,380.766 336.094,379.433 337.5,372.5 Z"/></g>
<g><path style="opacity:1" fill="#284c35" d="M 431.5,372.5 C 424.833,372.5 418.167,372.5 411.5,372.5C 411.5,374.833 411.5,377.167 411.5,379.5C 417.69,379.177 423.69,379.51 429.5,380.5C 423.167,380.5 416.833,380.5 410.5,380.5C 410.5,377.5 410.5,374.5 410.5,371.5C 417.687,371.175 424.687,371.509 431.5,372.5 Z"/></g>
<g><path style="opacity:1" fill="#264932" d="M 495.5,371.5 C 496.477,374.287 496.81,377.287 496.5,380.5C 488.167,380.5 479.833,380.5 471.5,380.5C 479.316,379.508 487.316,379.174 495.5,379.5C 495.5,376.833 495.5,374.167 495.5,371.5 Z"/></g>
<g><path style="opacity:1" fill="#264932" d="M 593.5,371.5 C 594.477,374.287 594.81,377.287 594.5,380.5C 586.167,380.5 577.833,380.5 569.5,380.5C 577.316,379.508 585.316,379.174 593.5,379.5C 593.5,376.833 593.5,374.167 593.5,371.5 Z"/></g>
<g><path style="opacity:1" fill="#000100" d="M 716.5,380.5 C 722.176,380.334 727.843,380.501 733.5,381C 735.91,381.758 736.91,383.425 736.5,386C 736.561,388.261 735.894,390.261 734.5,392C 728.509,392.499 722.509,392.666 716.5,392.5C 716.5,388.5 716.5,384.5 716.5,380.5 Z"/></g>
<g><path style="opacity:1" fill="#010301" d="M 980.5,380.5 C 997.406,377.818 1005.24,384.818 1004,401.5C 999.446,411.69 991.613,415.356 980.5,412.5C 980.5,401.833 980.5,391.167 980.5,380.5 Z"/></g>
<g><path style="opacity:1" fill="#c1291e" d="M 343.5,382.5 C 347.395,382.857 348.395,384.857 346.5,388.5C 343.511,389.957 341.845,388.957 341.5,385.5C 341.942,384.261 342.609,383.261 343.5,382.5 Z"/></g>
<g><path style="opacity:1" fill="#bb281d" d="M 220.5,382.5 C 222.117,383.038 223.784,383.371 225.5,383.5C 226.152,388.327 224.152,390.16 219.5,389C 218.42,386.701 218.754,384.534 220.5,382.5 Z"/></g>
<g><path style="opacity:1" fill="#cd2c20" d="M 270.5,387.5 C 275.042,387.605 279.376,388.605 283.5,390.5C 291.981,385.363 298.815,387.03 304,395.5C 305.169,402.161 302.836,407.161 297,410.5C 295.779,409.728 294.779,408.728 294,407.5C 296.104,405.29 297.604,402.457 298.5,399C 298.357,396.849 297.357,395.182 295.5,394C 291.239,394.029 287.072,394.862 283,396.5C 279.596,395.698 276.263,394.698 273,393.5C 271.893,393.585 270.893,393.919 270,394.5C 267.211,399.749 268.378,403.749 273.5,406.5C 272.669,409.113 271.002,410.28 268.5,410C 260.019,401.56 260.686,394.06 270.5,387.5 Z"/></g>
<g><path style="opacity:1" fill="#010301" d="M 778.5,390.5 C 780.726,393.945 782.726,397.611 784.5,401.5C 780.878,402.659 777.211,402.825 773.5,402C 775.655,398.366 777.321,394.533 778.5,390.5 Z"/></g>
<g><path style="opacity:1" fill="#8c1e16" d="M 324.5,389.5 C 326.806,393.085 328.139,397.085 328.5,401.5C 326.589,397.767 325.256,393.767 324.5,389.5 Z"/></g>
<g><path style="opacity:1" fill="#cd2c20" d="M 216.5,395.5 C 218.167,395.5 219.833,395.5 221.5,395.5C 221.5,396.5 221.5,397.5 221.5,398.5C 221.5,399.5 221.5,400.5 221.5,401.5C 216.524,401.797 214.857,399.797 216.5,395.5 Z"/></g>
<g><path style="opacity:1" fill="#c0291e" d="M 344.5,394.5 C 346.5,394.5 348.5,394.5 350.5,394.5C 350.5,396.5 350.5,398.5 350.5,400.5C 348.5,400.5 346.5,400.5 344.5,400.5C 344.5,398.5 344.5,396.5 344.5,394.5 Z"/></g>
<g><path style="opacity:1" fill="#6f1812" d="M 216.5,395.5 C 218.265,394.539 220.265,394.205 222.5,394.5C 222.768,396.099 222.434,397.432 221.5,398.5C 221.5,397.5 221.5,396.5 221.5,395.5C 219.833,395.5 218.167,395.5 216.5,395.5 Z"/></g>
<g><path style="opacity:1" fill="#c72b1f" d="M 215.5,406.5 C 217.5,406.5 219.5,406.5 221.5,406.5C 221.5,408.5 221.5,410.5 221.5,412.5C 219.5,412.5 217.5,412.5 215.5,412.5C 215.5,410.5 215.5,408.5 215.5,406.5 Z"/></g>
<g><path style="opacity:1" fill="#cc2c20" d="M 282.5,405.5 C 284.371,405.859 285.871,406.859 287,408.5C 290.333,414.5 293.667,420.5 297,426.5C 297.5,439.496 297.667,452.496 297.5,465.5C 295.5,465.5 293.5,465.5 291.5,465.5C 291.5,454.167 291.5,442.833 291.5,431.5C 289.833,431.5 288.167,431.5 286.5,431.5C 286.5,442.833 286.5,454.167 286.5,465.5C 284.5,465.5 282.5,465.5 280.5,465.5C 280.5,454.167 280.5,442.833 280.5,431.5C 278.833,431.5 277.167,431.5 275.5,431.5C 275.5,446.5 275.5,461.5 275.5,476.5C 273.5,476.5 271.5,476.5 269.5,476.5C 269.333,459.497 269.5,442.497 270,425.5C 273.927,418.637 278.094,411.97 282.5,405.5 Z"/></g>
<g><path style="opacity:1" fill="#721812" d="M 351.5,406.5 C 349.833,406.5 348.167,406.5 346.5,406.5C 346.5,408.167 346.5,409.833 346.5,411.5C 348.167,411.5 349.833,411.5 351.5,411.5C 349.735,412.461 347.735,412.795 345.5,412.5C 345.5,410.167 345.5,407.833 345.5,405.5C 347.735,405.205 349.735,405.539 351.5,406.5 Z"/></g>
<g><path style="opacity:1" fill="#da2f22" d="M 351.5,406.5 C 351.5,408.167 351.5,409.833 351.5,411.5C 349.833,411.5 348.167,411.5 346.5,411.5C 346.5,409.833 346.5,408.167 346.5,406.5C 348.167,406.5 349.833,406.5 351.5,406.5 Z"/></g>
<g><path style="opacity:1" fill="#336244" d="M 816.5,412.5 C 824.833,412.5 833.167,412.5 841.5,412.5C 841.5,415.5 841.5,418.5 841.5,421.5C 830.321,421.828 819.321,421.495 808.5,420.5C 819.167,420.5 829.833,420.5 840.5,420.5C 840.5,418.167 840.5,415.833 840.5,413.5C 832.316,413.826 824.316,413.492 816.5,412.5 Z"/></g>
<g><path style="opacity:1" fill="#336244" d="M 935.5,412.5 C 943.833,412.5 952.167,412.5 960.5,412.5C 960.5,415.5 960.5,418.5 960.5,421.5C 949.321,421.828 938.321,421.495 927.5,420.5C 938.167,420.5 948.833,420.5 959.5,420.5C 959.5,418.167 959.5,415.833 959.5,413.5C 951.316,413.826 943.316,413.492 935.5,412.5 Z"/></g>
<g><path style="opacity:1" fill="#160502" d="M 282.5,415.5 C 283.496,415.414 284.329,415.748 285,416.5C 286.373,419.412 287.873,422.246 289.5,425C 285.459,425.827 281.459,425.66 277.5,424.5C 279.432,421.634 281.099,418.634 282.5,415.5 Z"/></g>
<g><path style="opacity:1" fill="#c1291e" d="M 216.5,418.5 C 218.5,418.5 220.5,418.5 222.5,418.5C 222.5,420.5 222.5,422.5 222.5,424.5C 220.5,424.5 218.5,424.5 216.5,424.5C 216.5,422.5 216.5,420.5 216.5,418.5 Z"/></g>
<g><path style="opacity:1" fill="#c42a1e" d="M 344.5,417.5 C 346.5,417.5 348.5,417.5 350.5,417.5C 351.161,422.168 349.161,424.168 344.5,423.5C 344.5,421.5 344.5,419.5 344.5,417.5 Z"/></g>
<g><path style="opacity:1" fill="#264a33" d="M 869.5,419.5 C 883.657,420.496 897.99,420.829 912.5,420.5C 897.672,421.661 882.672,421.828 867.5,421C 868.044,420.283 868.711,419.783 869.5,419.5 Z"/></g>
<g><path style="opacity:1" fill="#203d2a" d="M 411.5,412.5 C 411.5,415.167 411.5,417.833 411.5,420.5C 417.833,420.5 424.167,420.5 430.5,420.5C 424.021,421.491 417.354,421.824 410.5,421.5C 410.19,418.287 410.523,415.287 411.5,412.5 Z"/></g>
<g><path style="opacity:1" fill="#1f3c29" d="M 463.5,371.5 C 463.5,387.833 463.5,404.167 463.5,420.5C 474.167,420.5 484.833,420.5 495.5,420.5C 495.5,417.833 495.5,415.167 495.5,412.5C 496.477,415.287 496.81,418.287 496.5,421.5C 485.167,421.5 473.833,421.5 462.5,421.5C 462.17,404.658 462.503,387.992 463.5,371.5 Z"/></g>
<g><path style="opacity:1" fill="#1f3c29" d="M 561.5,371.5 C 561.5,387.833 561.5,404.167 561.5,420.5C 572.167,420.5 582.833,420.5 593.5,420.5C 593.5,417.833 593.5,415.167 593.5,412.5C 594.477,415.287 594.81,418.287 594.5,421.5C 583.167,421.5 571.833,421.5 560.5,421.5C 560.17,404.658 560.503,387.992 561.5,371.5 Z"/></g>
<g><path style="opacity:1" fill="#4c100c" d="M 463.5,425.5 C 463.5,425.833 463.5,426.167 463.5,426.5C 463.5,442.5 463.5,458.5 463.5,474.5C 465.833,474.5 468.167,474.5 470.5,474.5C 470.833,474.5 471.167,474.5 471.5,474.5C 468.713,475.477 465.713,475.81 462.5,475.5C 462.17,458.658 462.503,441.992 463.5,425.5 Z"/></g>
<g><path style="opacity:1" fill="#911f16" d="M 562.5,426.5 C 551.833,426.5 541.167,426.5 530.5,426.5C 530.5,442.5 530.5,458.5 530.5,474.5C 529.504,458.342 529.17,442.009 529.5,425.5C 540.679,425.172 551.679,425.505 562.5,426.5 Z"/></g>
<g><path style="opacity:1" fill="#390c09" d="M 786.5,425.5 C 787.827,441.672 787.827,458.005 786.5,474.5C 785.893,474.376 785.56,474.043 785.5,473.5C 786.496,457.675 786.83,441.675 786.5,425.5 Z"/></g>
<g><path style="opacity:1" fill="#d12d20" d="M 411.5,425.5 C 421.948,424.404 431.948,425.904 441.5,430C 451.584,438.544 454.251,449.044 449.5,461.5C 444.586,469.797 437.253,474.297 427.5,475C 422.177,475.499 416.844,475.666 411.5,475.5C 411.5,472.5 411.5,469.5 411.5,466.5C 418.508,466.666 425.508,466.5 432.5,466C 443.098,460.538 445.932,452.372 441,441.5C 438.76,438.598 435.927,436.431 432.5,435C 425.508,434.5 418.508,434.334 411.5,434.5C 411.5,431.5 411.5,428.5 411.5,425.5 Z"/></g>
<g><path style="opacity:1" fill="#de3022" d="M 463.5,426.5 C 465.833,426.5 468.167,426.5 470.5,426.5C 470.5,442.5 470.5,458.5 470.5,474.5C 468.167,474.5 465.833,474.5 463.5,474.5C 463.5,458.5 463.5,442.5 463.5,426.5 Z"/></g>
<g><path style="opacity:1" fill="#a8241a" d="M 463.5,426.5 C 463.5,426.167 463.5,425.833 463.5,425.5C 466.167,425.5 468.833,425.5 471.5,425.5C 471.5,441.833 471.5,458.167 471.5,474.5C 471.167,474.5 470.833,474.5 470.5,474.5C 470.5,458.5 470.5,442.5 470.5,426.5C 468.167,426.5 465.833,426.5 463.5,426.5 Z"/></g>
<g><path style="opacity:1" fill="#a12219" d="M 517.5,426.5 C 506.833,426.5 496.167,426.5 485.5,426.5C 485.5,442.5 485.5,458.5 485.5,474.5C 487.833,474.5 490.167,474.5 492.5,474.5C 490.052,475.473 487.385,475.806 484.5,475.5C 484.5,458.833 484.5,442.167 484.5,425.5C 495.679,425.172 506.679,425.505 517.5,426.5 Z"/></g>
<g><path style="opacity:1" fill="#d12d20" d="M 517.5,426.5 C 517.5,429.167 517.5,431.833 517.5,434.5C 509.5,434.5 501.5,434.5 493.5,434.5C 493.5,438.5 493.5,442.5 493.5,446.5C 500.508,446.334 507.508,446.5 514.5,447C 515.833,449.667 515.833,452.333 514.5,455C 507.508,455.5 500.508,455.666 493.5,455.5C 493.823,462.022 493.49,468.355 492.5,474.5C 490.167,474.5 487.833,474.5 485.5,474.5C 485.5,458.5 485.5,442.5 485.5,426.5C 496.167,426.5 506.833,426.5 517.5,426.5 Z"/></g>
<g><path style="opacity:1" fill="#d22d21" d="M 562.5,426.5 C 562.5,429.167 562.5,431.833 562.5,434.5C 554.5,434.5 546.5,434.5 538.5,434.5C 538.5,438.5 538.5,442.5 538.5,446.5C 545.508,446.334 552.508,446.5 559.5,447C 560.833,449.667 560.833,452.333 559.5,455C 552.508,455.5 545.508,455.666 538.5,455.5C 538.666,461.842 538.5,468.175 538,474.5C 535.395,475.814 532.895,475.814 530.5,474.5C 530.5,458.5 530.5,442.5 530.5,426.5C 541.167,426.5 551.833,426.5 562.5,426.5 Z"/></g>
<g><path style="opacity:1" fill="#a42319" d="M 582.5,426.5 C 580.167,426.5 577.833,426.5 575.5,426.5C 575.5,437.833 575.5,449.167 575.5,460.5C 574.505,449.012 574.172,437.345 574.5,425.5C 577.385,425.194 580.052,425.527 582.5,426.5 Z"/></g>
<g><path style="opacity:1" fill="#d32d21" d="M 582.5,426.5 C 583.331,438.326 583.831,450.326 584,462.5C 589.632,468.791 595.632,469.124 602,463.5C 602.608,461.846 603.108,460.179 603.5,458.5C 604.494,448.013 604.828,437.346 604.5,426.5C 606.833,426.5 609.167,426.5 611.5,426.5C 612.659,437.326 612.826,448.326 612,459.5C 611.399,467.432 607.233,472.266 599.5,474C 593.747,474.851 588.08,474.517 582.5,473C 578.2,469.898 575.867,465.731 575.5,460.5C 575.5,449.167 575.5,437.833 575.5,426.5C 577.833,426.5 580.167,426.5 582.5,426.5 Z"/></g>
<g><path style="opacity:1" fill="#a52319" d="M 611.5,426.5 C 609.167,426.5 606.833,426.5 604.5,426.5C 604.828,437.346 604.494,448.013 603.5,458.5C 603.5,447.5 603.5,436.5 603.5,425.5C 606.385,425.194 609.052,425.527 611.5,426.5 Z"/></g>
<g><path style="opacity:1" fill="#d32d21" d="M 636.5,425.5 C 643.544,424.923 649.544,427.09 654.5,432C 652.612,434.19 650.445,436.023 648,437.5C 643.175,434.02 638.175,433.687 633,436.5C 631.083,439.331 631.583,441.831 634.5,444C 639.248,445.082 643.915,446.415 648.5,448C 654.632,453.342 656.132,459.842 653,467.5C 646.164,474.546 637.997,476.38 628.5,473C 626.651,471.907 624.984,470.574 623.5,469C 625.47,466.684 627.804,464.851 630.5,463.5C 635.298,467.466 640.131,467.466 645,463.5C 647.222,460.49 646.722,457.99 643.5,456C 637.518,454.406 631.851,452.072 626.5,449C 620.125,436.925 623.458,429.092 636.5,425.5 Z"/></g>
<g><path style="opacity:1" fill="#dc2f22" d="M 666.5,425.5 C 669.167,425.5 671.833,425.5 674.5,425.5C 674.5,441.833 674.5,458.167 674.5,474.5C 671.833,474.5 669.167,474.5 666.5,474.5C 666.5,458.167 666.5,441.833 666.5,425.5 Z"/></g>
<g><path style="opacity:1" fill="#d52e21" d="M 708.5,425.5 C 727.378,427.242 735.878,437.575 734,456.5C 726.512,473.89 714.012,478.723 696.5,471C 684.144,460.412 682.31,448.245 691,434.5C 696.029,429.737 701.862,426.737 708.5,425.5 Z"/></g>
<g><path style="opacity:1" fill="#9f2218" d="M 747.5,427.5 C 746.504,442.991 746.17,458.658 746.5,474.5C 748.833,474.5 751.167,474.5 753.5,474.5C 751.052,475.473 748.385,475.806 745.5,475.5C 745.167,459.153 745.501,442.82 746.5,426.5C 747.107,426.624 747.44,426.957 747.5,427.5 Z"/></g>
<g><path style="opacity:1" fill="#d62e21" d="M 786.5,425.5 C 786.83,441.675 786.496,457.675 785.5,473.5C 775.203,464.373 765.037,455.039 755,445.5C 754.83,455.342 754.33,465.009 753.5,474.5C 751.167,474.5 748.833,474.5 746.5,474.5C 746.17,458.658 746.504,442.991 747.5,427.5C 757.797,436.627 767.963,445.961 778,455.5C 778.5,445.506 778.666,435.506 778.5,425.5C 781.167,425.5 783.833,425.5 786.5,425.5 Z"/></g>
<g><path style="opacity:1" fill="#cd2c20" d="M 342.5,428.5 C 344.117,429.038 345.784,429.371 347.5,429.5C 347.167,431.5 346.833,433.5 346.5,435.5C 341.812,435.108 340.478,432.775 342.5,428.5 Z"/></g>
<g><path style="opacity:1" fill="#c62b1f" d="M 220.5,429.5 C 224.677,428.842 226.177,430.508 225,434.5C 221.891,437.574 220.058,436.907 219.5,432.5C 219.685,431.416 220.018,430.416 220.5,429.5 Z"/></g>
<g><path style="opacity:1" fill="#030000" d="M 704.5,434.5 C 720.634,433.46 727.467,440.794 725,456.5C 719.605,466.409 711.772,468.909 701.5,464C 690.114,452.833 691.114,443 704.5,434.5 Z"/></g>
<g><path style="opacity:1" fill="#be291e" d="M 337.5,438.5 C 343.043,439.63 343.876,442.297 340,446.5C 338.197,445.687 336.697,444.52 335.5,443C 336.414,441.594 337.08,440.094 337.5,438.5 Z"/></g>
<g><path style="opacity:1" fill="#c42a1e" d="M 227.5,439.5 C 229.701,439.858 231.035,441.192 231.5,443.5C 228.616,447.656 226.282,447.322 224.5,442.5C 225.34,441.265 226.34,440.265 227.5,439.5 Z"/></g>
<g><path style="opacity:1" fill="#c82b1f" d="M 331.5,448.5 C 337.694,450.022 338.028,452.356 332.5,455.5C 331.019,454.52 329.685,453.353 328.5,452C 329.71,450.961 330.71,449.794 331.5,448.5 Z"/></g>
<g><path style="opacity:1" fill="#c92b1f" d="M 233.5,449.5 C 239.298,450.725 239.798,453.058 235,456.5C 231.342,454.594 230.842,452.26 233.5,449.5 Z"/></g>
<g><path style="opacity:1" fill="#5c1410" d="M 255.5,451.5 C 256.924,453.515 257.59,455.848 257.5,458.5C 256.076,456.485 255.41,454.152 255.5,451.5 Z"/></g>
<g><path style="opacity:1" fill="#851c15" d="M 257.5,458.5 C 258.165,462.151 258.499,465.985 258.5,470C 258.49,474.229 257.823,478.062 256.5,481.5C 257.466,473.92 257.799,466.253 257.5,458.5 Z"/></g>
<g><path style="opacity:1" fill="#0d0201" d="M 294.5,474.5 C 302.174,474.334 309.841,474.5 317.5,475C 321.598,478.649 321.265,481.982 316.5,485C 309.144,485.831 301.811,485.665 294.5,484.5C 291.843,481.133 291.843,477.8 294.5,474.5 Z"/></g>
<g><path style="opacity:1" fill="#090200" d="M 293.5,491.5 C 301.84,491.334 310.173,491.5 318.5,492C 321.167,494.333 321.167,496.667 318.5,499C 310.5,499.667 302.5,499.667 294.5,499C 292.168,496.816 291.835,494.316 293.5,491.5 Z"/></g>
<g><path style="opacity:1" fill="#45855c" d="M 416.5,499.5 C 417.5,499.5 418.5,499.5 419.5,499.5C 419.666,505.509 419.499,511.509 419,517.5C 416.865,519.278 414.365,519.945 411.5,519.5C 411.5,518.5 411.5,517.5 411.5,516.5C 412.833,516.5 414.167,516.5 415.5,516.5C 415.214,510.741 415.548,505.075 416.5,499.5 Z"/></g>
<g><path style="opacity:1" fill="#44825a" d="M 501.5,499.5 C 502.833,499.5 504.167,499.5 505.5,499.5C 505.5,506.167 505.5,512.833 505.5,519.5C 503.856,519.714 502.356,519.38 501,518.5C 494.666,521.557 491.166,519.39 490.5,512C 491.857,505.363 495.357,503.863 501,507.5C 501.497,504.854 501.664,502.187 501.5,499.5 Z"/></g>
<g><path style="opacity:1" fill="#488a60" d="M 586.5,499.5 C 587.978,499.238 589.311,499.571 590.5,500.5C 589.68,502.111 588.346,502.778 586.5,502.5C 586.5,501.5 586.5,500.5 586.5,499.5 Z"/></g>
<g><path style="opacity:1" fill="#498c61" d="M 650.5,499.5 C 651.833,499.5 653.167,499.5 654.5,499.5C 654.5,500.5 654.5,501.5 654.5,502.5C 653.167,502.5 651.833,502.5 650.5,502.5C 650.5,501.5 650.5,500.5 650.5,499.5 Z"/></g>
<g><path style="opacity:1" fill="#498d62" d="M 678.5,499.5 C 679.5,499.5 680.5,499.5 681.5,499.5C 681.336,502.187 681.503,504.854 682,507.5C 685,504.833 688,504.833 691,507.5C 691.499,511.486 691.666,515.486 691.5,519.5C 690.167,519.5 688.833,519.5 687.5,519.5C 687.665,516.15 687.498,512.817 687,509.5C 685.062,508.14 683.396,508.473 682,510.5C 681.502,513.482 681.335,516.482 681.5,519.5C 680.5,519.5 679.5,519.5 678.5,519.5C 678.5,512.833 678.5,506.167 678.5,499.5 Z"/></g>
<g><path style="opacity:1" fill="#45855c" d="M 793.5,499.5 C 794.822,499.33 795.989,499.663 797,500.5C 797.333,502.5 797.667,504.5 798,506.5C 800.916,504.987 803.582,505.32 806,507.5C 806.499,511.486 806.666,515.486 806.5,519.5C 805.167,519.5 803.833,519.5 802.5,519.5C 802.5,515.833 802.5,512.167 802.5,508.5C 800.856,508.286 799.356,508.62 798,509.5C 797.502,512.817 797.335,516.15 797.5,519.5C 796.167,519.5 794.833,519.5 793.5,519.5C 793.5,512.833 793.5,506.167 793.5,499.5 Z"/></g>
<g><path style="opacity:1" fill="#498d61" d="M 469.5,501.5 C 470.5,501.5 471.5,501.5 472.5,501.5C 472.5,502.833 472.5,504.167 472.5,505.5C 473.833,505.5 475.167,505.5 476.5,505.5C 476.5,506.5 476.5,507.5 476.5,508.5C 475.167,508.5 473.833,508.5 472.5,508.5C 471.732,512.83 473.065,516.163 476.5,518.5C 474.516,519.706 472.516,519.706 470.5,518.5C 469.513,515.232 469.18,511.898 469.5,508.5C 468.5,508.5 467.5,508.5 466.5,508.5C 466.5,507.5 466.5,506.5 466.5,505.5C 467.5,505.5 468.5,505.5 469.5,505.5C 469.5,504.167 469.5,502.833 469.5,501.5 Z"/></g>
<g><path style="opacity:1" fill="#45855c" d="M 599.5,501.5 C 602.5,501.167 603.833,502.5 603.5,505.5C 604.675,505.281 605.675,505.614 606.5,506.5C 603.805,509.277 602.972,512.611 604,516.5C 605.205,517.071 606.372,517.738 607.5,518.5C 604.718,519.952 602.218,519.619 600,517.5C 599.502,514.518 599.335,511.518 599.5,508.5C 598.5,508.5 597.5,508.5 596.5,508.5C 596.5,507.5 596.5,506.5 596.5,505.5C 597.5,505.5 598.5,505.5 599.5,505.5C 599.5,504.167 599.5,502.833 599.5,501.5 Z"/></g>
<g><path style="opacity:1" fill="#44835b" d="M 664.5,501.5 C 665.5,501.5 666.5,501.5 667.5,501.5C 667.5,502.833 667.5,504.167 667.5,505.5C 668.833,505.5 670.167,505.5 671.5,505.5C 671.5,506.5 671.5,507.5 671.5,508.5C 670.167,508.5 668.833,508.5 667.5,508.5C 667.337,510.857 667.503,513.19 668,515.5C 668.9,516.77 670.066,517.77 671.5,518.5C 668.718,519.952 666.218,519.619 664,517.5C 663.502,514.518 663.335,511.518 663.5,508.5C 662.5,508.5 661.5,508.5 660.5,508.5C 660.5,507.5 660.5,506.5 660.5,505.5C 661.833,505.5 663.167,505.5 664.5,505.5C 664.5,504.167 664.5,502.833 664.5,501.5 Z"/></g>
<g><path style="opacity:1" fill="#46875d" d="M 873.5,501.5 C 874.5,501.5 875.5,501.5 876.5,501.5C 876.5,502.833 876.5,504.167 876.5,505.5C 877.833,505.5 879.167,505.5 880.5,505.5C 880.5,506.5 880.5,507.5 880.5,508.5C 879.167,508.5 877.833,508.5 876.5,508.5C 876.336,511.187 876.503,513.854 877,516.5C 878.205,517.071 879.372,517.738 880.5,518.5C 877.23,520.214 874.73,519.548 873,516.5C 872.936,513.237 872.102,510.237 870.5,507.5C 872.559,506.049 873.559,504.049 873.5,501.5 Z"/></g>
<g><path style="opacity:1" fill="#47895f" d="M 428.5,505.5 C 429.822,505.33 430.989,505.663 432,506.5C 432.499,510.152 432.665,513.818 432.5,517.5C 434.39,517.703 435.89,517.037 437,515.5C 437.498,512.183 437.665,508.85 437.5,505.5C 438.833,505.5 440.167,505.5 441.5,505.5C 441.5,510.167 441.5,514.833 441.5,519.5C 437.547,519.337 433.547,519.004 429.5,518.5C 428.561,514.235 428.228,509.902 428.5,505.5 Z"/></g>
<g><path style="opacity:1" fill="#428058" d="M 451.5,505.5 C 454.187,505.336 456.854,505.503 459.5,506C 460.337,507.011 460.67,508.178 460.5,509.5C 458.194,509.007 455.861,508.674 453.5,508.5C 453.5,509.5 453.5,510.5 453.5,511.5C 459,510.831 461.167,513.165 460,518.5C 457.421,520.347 454.588,520.847 451.5,520C 450.027,519.29 449.36,518.124 449.5,516.5C 459.923,517.224 460.089,515.89 450,512.5C 449.167,509.829 449.667,507.496 451.5,505.5 Z"/></g>
<g><path style="opacity:1" fill="#46885e" d="M 513.5,505.5 C 515.143,505.48 516.476,506.147 517.5,507.5C 518.842,505.995 520.508,505.328 522.5,505.5C 522.5,506.5 522.5,507.5 522.5,508.5C 520.549,508.227 519.049,508.893 518,510.5C 517.502,513.482 517.335,516.482 517.5,519.5C 516.167,519.5 514.833,519.5 513.5,519.5C 513.5,514.833 513.5,510.167 513.5,505.5 Z"/></g>
<g><path style="opacity:1" fill="#478a5f" d="M 531.5,505.5 C 534.685,505.02 537.519,505.686 540,507.5C 540.499,511.486 540.666,515.486 540.5,519.5C 537.316,519.167 533.982,519 530.5,519C 528.38,517.477 528.047,515.644 529.5,513.5C 531.958,512.081 534.625,511.081 537.5,510.5C 536.829,509.054 535.662,508.388 534,508.5C 532.175,508.943 530.342,509.277 528.5,509.5C 528.5,508.5 528.5,507.5 528.5,506.5C 529.791,506.737 530.791,506.404 531.5,505.5 Z"/></g>
<g><path style="opacity:1" fill="#46865d" d="M 548.5,505.5 C 549.5,505.5 550.5,505.5 551.5,505.5C 552.976,515.397 555.143,515.731 558,506.5C 558.561,505.978 559.228,505.645 560,505.5C 562.03,508.213 563.696,511.213 565,514.5C 566,511.833 567,509.167 568,506.5C 569.011,505.663 570.178,505.33 571.5,505.5C 570.729,510.311 569.062,514.811 566.5,519C 565.216,519.684 564.049,519.517 563,518.5C 560.168,509.356 558.001,509.69 556.5,519.5C 555.022,519.762 553.689,519.429 552.5,518.5C 550.355,514.4 549.022,510.067 548.5,505.5 Z"/></g>
<g><path style="opacity:1" fill="#4d9466" d="M 586.5,505.5 C 587.5,505.5 588.5,505.5 589.5,505.5C 589.827,510.214 589.493,514.88 588.5,519.5C 587.914,519.291 587.414,518.957 587,518.5C 586.501,514.179 586.334,509.846 586.5,505.5 Z"/></g>
<g><path style="opacity:1" fill="#46875e" d="M 620.5,505.5 C 621.675,505.281 622.675,505.614 623.5,506.5C 624.764,509.125 625.931,511.792 627,514.5C 630.494,502.609 633.994,502.609 637.5,514.5C 638.499,511.839 639.499,509.172 640.5,506.5C 641.325,505.614 642.325,505.281 643.5,505.5C 643.193,509.772 642.027,513.772 640,517.5C 638.847,519.497 637.347,519.83 635.5,518.5C 634.423,516.088 633.256,513.754 632,511.5C 631,513.833 630,516.167 629,518.5C 627.951,519.517 626.784,519.684 625.5,519C 623.127,514.756 621.461,510.256 620.5,505.5 Z"/></g>
<g><path style="opacity:1" fill="#44835a" d="M 650.5,505.5 C 651.833,505.5 653.167,505.5 654.5,505.5C 654.5,510.167 654.5,514.833 654.5,519.5C 653.167,519.5 651.833,519.5 650.5,519.5C 650.5,514.833 650.5,510.167 650.5,505.5 Z"/></g>
<g><path style="opacity:1" fill="#45855c" d="M 706.5,505.5 C 707.822,505.33 708.989,505.663 710,506.5C 710.897,509.292 712.063,511.959 713.5,514.5C 714.829,511.842 716.162,509.176 717.5,506.5C 718.325,505.614 719.325,505.281 720.5,505.5C 718.598,512.639 715.598,519.305 711.5,525.5C 710.5,525.167 709.833,524.5 709.5,523.5C 711.674,519.709 711.174,516.042 708,512.5C 707.023,510.26 706.523,507.927 706.5,505.5 Z"/></g>
<g><path style="opacity:1" fill="#45855c" d="M 730.5,505.5 C 739.328,504.839 742.495,508.839 740,517.5C 730.413,522.526 726.08,519.526 727,508.5C 728.145,507.364 729.312,506.364 730.5,505.5 Z"/></g>
<g><path style="opacity:1" fill="#47895f" d="M 748.5,505.5 C 749.822,505.33 750.989,505.663 752,506.5C 752.499,510.152 752.665,513.818 752.5,517.5C 754.39,517.703 755.89,517.037 757,515.5C 757.498,512.183 757.665,508.85 757.5,505.5C 758.833,505.5 760.167,505.5 761.5,505.5C 761.5,510.167 761.5,514.833 761.5,519.5C 757.547,519.337 753.547,519.004 749.5,518.5C 748.561,514.235 748.228,509.902 748.5,505.5 Z"/></g>
<g><path style="opacity:1" fill="#46875d" d="M 769.5,505.5 C 772.865,506.236 776.198,506.57 779.5,506.5C 777.288,507.74 775.455,509.407 774,511.5C 773.503,514.146 773.336,516.813 773.5,519.5C 772.178,519.67 771.011,519.337 770,518.5C 769.501,514.179 769.334,509.846 769.5,505.5 Z"/></g>
<g><path style="opacity:1" fill="#478a5f" d="M 817.5,505.5 C 824.113,504.116 827.446,506.782 827.5,513.5C 824.15,513.335 820.817,513.502 817.5,514C 818.167,515 818.833,516 819.5,517C 822.235,516.802 824.901,516.969 827.5,517.5C 823.557,520.086 819.557,520.086 815.5,517.5C 813.727,512.989 814.393,508.989 817.5,505.5 Z"/></g>
<g><path style="opacity:1" fill="#45855c" d="M 837.5,505.5 C 840.685,505.02 843.519,505.686 846,507.5C 847.504,511.039 847.837,514.705 847,518.5C 843.378,519.346 839.545,519.346 835.5,518.5C 834.515,516.902 834.349,515.235 835,513.5C 837.672,512.133 840.505,511.133 843.5,510.5C 842.829,509.054 841.662,508.388 840,508.5C 838.175,508.943 836.342,509.277 834.5,509.5C 834.5,508.5 834.5,507.5 834.5,506.5C 835.791,506.737 836.791,506.404 837.5,505.5 Z"/></g>
<g><path style="opacity:1" fill="#45845c" d="M 855.5,505.5 C 857.124,505.36 858.29,506.027 859,507.5C 860.444,505.845 862.278,505.178 864.5,505.5C 864.5,506.5 864.5,507.5 864.5,508.5C 862.278,508.178 860.444,508.845 859,510.5C 858.502,513.482 858.335,516.482 858.5,519.5C 857.167,519.5 855.833,519.5 854.5,519.5C 854.226,514.737 854.559,510.07 855.5,505.5 Z"/></g>
<g><path style="opacity:1" fill="#0c0201" d="M 293.5,505.5 C 301.84,505.334 310.173,505.5 318.5,506C 321.167,508.333 321.167,510.667 318.5,513C 310.167,513.667 301.833,513.667 293.5,513C 292.221,510.502 292.221,508.002 293.5,505.5 Z"/></g>
<g><path style="opacity:1" fill="#040906" d="M 495.5,508.5 C 501.605,508.917 502.938,511.75 499.5,517C 497.633,517.711 496.133,517.211 495,515.5C 494.297,513.071 494.463,510.738 495.5,508.5 Z"/></g>
<g><path style="opacity:1" fill="#020503" d="M 731.5,508.5 C 738.477,509.606 739.311,512.606 734,517.5C 730.415,515.371 729.582,512.371 731.5,508.5 Z"/></g>
<g><path style="opacity:1" fill="#030604" d="M 818.5,508.5 C 821.045,508.151 823.045,508.984 824.5,511C 822.527,511.495 820.527,511.662 818.5,511.5C 818.5,510.5 818.5,509.5 818.5,508.5 Z"/></g>
<g><path style="opacity:1" fill="#030604" d="M 532.5,513.5 C 537.943,513.201 538.61,514.535 534.5,517.5C 532.889,516.68 532.222,515.346 532.5,513.5 Z"/></g>
<g><path style="opacity:1" fill="#040906" d="M 838.5,513.5 C 843.943,513.201 844.61,514.535 840.5,517.5C 838.889,516.68 838.222,515.346 838.5,513.5 Z"/></g>
<g><path style="opacity:1" fill="#080100" d="M 294.5,519.5 C 302.174,519.334 309.841,519.5 317.5,520C 320.987,521.95 321.321,524.283 318.5,527C 310.167,527.667 301.833,527.667 293.5,527C 292.083,524.257 292.416,521.757 294.5,519.5 Z"/></g>
<g><path style="opacity:1" fill="#751912" d="M 274.5,520.5 C 275.434,521.568 275.768,522.901 275.5,524.5C 277.167,524.5 278.833,524.5 280.5,524.5C 278.735,525.461 276.735,525.795 274.5,525.5C 274.5,523.833 274.5,522.167 274.5,520.5 Z"/></g>
</svg>
