<?xml version="1.0" encoding="utf-8" ?>
<svg xmlns="http://www.w3.org/2000/svg" xmlns:xlink="http://www.w3.org/1999/xlink" width="512" height="512">
	<path transform="scale(0.5 0.5)" d="M503.782 88.5897C513.366 87.9209 522.013 88.4729 531 91.9528C542.392 96.3636 549.745 103.725 556.003 114C556.809 115.323 557.354 116.589 557.971 118C558.831 119.968 559.778 122.015 560.262 124.112L560.463 125C562.16 131.025 562.232 136.83 562.562 143.053C563.254 156.097 563.143 169.246 562.371 182.285C570.628 184.854 578.54 187.257 586.323 191.152C604.551 200.273 619.811 216.658 629.627 234.293C632.126 238.783 634.694 243.481 636.248 248.406C637.426 252.144 639.036 255.963 639.742 259.818C639.871 260.523 639.982 261.174 640.231 261.85C641.38 264.964 641.425 267.873 642.163 270.992C642.683 273.189 643.042 275.242 643.174 277.5C643.897 289.788 643.657 302.333 641.119 314.413C635.081 343.149 617.123 368.607 591.987 383.727C587.236 386.585 582.324 389.112 577.32 391.492C574.24 392.957 571.134 394.341 568.012 395.714C567.127 396.103 565.177 396.702 564.57 397.295C561.919 399.884 560.892 405.874 559.41 409.256C557.855 412.805 555.92 415.624 553.368 418.519C558.281 419.104 563.345 418.728 568.29 418.694C578.228 418.624 588.178 418.527 598.116 418.684C604.149 418.78 610.269 418.704 616.234 419.686C624.205 420.998 630.727 422.541 637.711 426.994C648.387 433.803 659.071 446.24 661.833 458.914C662.049 459.906 661.913 459.496 662.192 460.265C664.714 467.222 663.987 476.699 664.002 484.047C672.092 484.052 681.785 481.912 689.475 484.816C695.849 487.222 701.717 491.837 707.52 495.367C712.971 498.683 719.477 501.859 724.401 505.831C725.443 506.672 726.254 507.818 726.75 509.06C727.707 511.457 728.117 608.226 727.594 609.744C725.754 615.089 720.974 619.142 717.25 623.208C714.408 626.31 711.718 629.576 708.985 632.777C708.326 633.548 706.25 635.509 705.978 636.307C705.693 637.142 705.986 639.498 705.989 640.45C705.999 644.851 706.009 649.251 706.021 653.651C706.083 676.698 706.11 699.744 706.028 722.791C706.007 728.623 706.027 734.454 706.01 740.286C706.002 742.989 706.399 746.416 705.354 748.936L705.1 749.5C704.333 751.288 703.432 752.801 702.187 754.313C700.188 756.739 696.939 758.866 693.741 759.142C690.291 759.439 686.541 758.294 684.01 755.876C681.818 753.783 680.363 751.369 679.84 748.382C679.217 744.827 679.564 741.092 679.671 737.498C679.82 732.513 679.902 727.529 679.876 722.542C679.742 696.006 679.915 669.49 680.03 642.955L664.028 642.95C663.643 655.351 663.835 667.846 664.021 680.25C664.133 687.653 665.183 695.668 663.806 702.99C662.931 707.642 660.009 712.481 657.319 716.312C649.757 727.082 639.343 734.511 626.362 736.82C625.729 742.661 626.009 748.763 626.031 754.638C626.075 766.084 626.144 777.53 626.097 788.976C626.073 794.677 626.379 800.668 625.806 806.335C624.991 814.392 622.812 822.51 618.932 829.664C612.794 840.98 602.486 851.582 594.06 861.308C582.746 874.368 571.42 887.416 560.542 900.841C556.951 905.272 552.965 909.402 549.472 913.904C547.835 916.013 546.631 918.384 545.127 920.578C539.543 928.722 528.866 932.24 519.694 933.949L512.25 934.348C500.953 934.504 487.839 931.581 479.659 923.451C472.894 916.728 466.872 908.702 460.895 901.242C453.765 892.341 446.499 883.534 439.32 874.67C428.056 860.763 415.292 847.124 405.774 831.946C402.634 826.94 400.052 821.351 398.89 815.527C397.261 807.361 398.134 797.231 398.111 788.872C398.066 771.749 398.083 754.625 398.072 737.502C395.747 736.732 393.288 736.435 390.964 735.645C384.759 733.539 379.21 730.189 374.47 725.679C369.058 720.528 364.094 714.824 361.584 707.674C360.105 703.462 359.929 699.247 359.731 694.83C359.397 687.354 359.664 679.922 359.805 672.449C359.99 662.634 360.076 652.77 359.802 642.957L344.123 642.815C343.518 654.67 343.902 666.656 343.968 678.523C344.054 693.732 343.918 708.934 343.75 724.142C343.702 728.447 343.597 732.763 343.645 737.069C343.698 741.903 344.603 747.484 342.278 751.948C340.015 756.29 336.431 758.326 331.936 759.693C329.171 759.202 326.731 758.679 324.319 757.12C321.458 755.27 319.095 752.195 318.49 748.798L318.4 748.25C317.719 744.288 317.963 740.144 317.958 736.13C317.951 729.873 317.961 723.616 317.968 717.358C317.996 694.345 318.244 671.323 318.084 648.311C318.066 645.719 318.042 643.128 318.014 640.537C318.008 640.01 318.175 638.244 317.98 637.798C317.362 636.381 315.607 634.547 314.654 633.282C311.541 629.154 297.09 612.762 296.507 608.75C295.851 604.239 296.382 598.843 296.381 594.262C296.377 583.981 296.374 573.699 296.378 563.417C296.383 551.528 296.403 539.638 296.396 527.749C296.393 522.405 295.795 516.104 296.575 510.855C296.83 509.137 297.921 506.983 299.097 505.724C300.441 504.284 302.749 503.375 304.47 502.448C306.62 501.289 308.668 499.961 310.728 498.652C320.862 492.21 331.58 484.132 344 483.606C349.187 483.386 354.351 484.008 359.51 483.796C360.252 483.765 359.947 483.906 359.945 482.858C359.933 478.33 359.869 473.772 360.165 469.253C360.934 457.51 365.903 445.405 373.949 436.794C379.145 431.233 386.081 425.782 393.222 422.929C404.755 418.321 417.722 418.453 429.953 418.667C439.583 418.836 449.205 418.94 458.835 419.058C462.738 419.105 466.493 419.445 470.418 419.296C467.255 414.047 464.197 408.684 461.576 403.141C460.883 401.675 459.927 397.957 458.95 396.911C457.328 395.177 451.884 393.739 449.474 392.606C442.871 389.501 436.198 386.424 430 382.554C405.982 367.557 388.472 340.974 382.557 313.5C372.76 267.996 392.093 219.392 432.111 194.953C438.233 191.214 444.648 187.89 451.422 185.488C453.895 184.611 456.463 183.968 459.005 183.326C459.31 183.248 460.898 182.933 461.042 182.816C461.351 182.563 461.027 182.017 461.021 181.618C460.965 178.16 460.94 174.704 460.946 171.245C460.978 150.946 457.511 129.106 469.173 111.17C474.969 102.256 484.619 94.4984 494.601 90.8578C497.511 89.7968 500.756 89.256 503.782 88.5897ZM410.59 447.662C403.657 448.623 396.625 451.328 392.312 457.154C389.631 460.775 387.921 464.632 386.974 469L386.789 469.818C385.761 474.717 386.055 480.266 386.059 485.263C386.067 493.966 386.222 502.677 386.222 511.377C386.221 533.745 386.216 556.11 386.29 578.479C386.374 604.06 386.222 629.646 386.196 655.228C386.182 667.727 385.453 680.797 386.41 693.25C386.656 696.46 387.67 698.817 389.466 701.451C391.726 704.764 396.925 709.653 400.919 710.352C405.317 711.122 410.798 710.511 415.315 710.514C425.83 710.519 436.344 710.527 446.859 710.537C488.088 710.579 529.283 711.403 570.5 711.952C579.471 712.072 588.674 712.366 597.63 711.934C601.998 711.724 605.637 710.299 610.141 710.718C612.884 710.921 616.603 711.742 619.25 711.459C622.709 711.09 626.654 708.708 629.26 706.472C633.348 702.964 637.171 698.304 637.508 692.75C638.3 679.708 637.459 666.199 637.454 653.106C637.445 625.814 637.472 598.522 637.459 571.23C637.448 550.615 637.415 529.999 637.442 509.384C637.458 498.113 638.244 486.183 637.115 475C636.223 466.166 633.924 458.749 626.82 452.861C623.83 450.382 620.233 448.536 616.347 448.007C608.281 446.909 599.379 447.601 591.22 447.6C575.14 447.598 559.059 447.605 542.979 447.614C513.931 447.629 484.882 447.617 455.834 447.608C440.796 447.603 425.616 447.197 410.59 447.662ZM481.639 207.71C460.058 209.183 441.476 218.492 427.219 234.75C419.218 243.874 411.823 257.974 409.528 269.972C408.53 275.188 407.43 279.98 407.077 285.326C405.999 301.653 410.515 320.697 419.612 334.378C426.242 344.348 435.735 354.526 446.167 360.584C453.004 364.554 460.06 366.99 467.462 369.608C474.751 372.186 479.104 379.82 483.106 386C483.927 387.267 486.205 391.371 487.435 391.775C488.867 392.246 491.928 391.948 493.5 391.944C499.635 391.926 505.77 391.726 511.906 391.729C520.156 391.732 528.418 392.013 536.671 392.077L539.033 388.275C542.784 381.643 548.22 372.351 555.75 369.989C560.174 368.601 564.711 367.308 568.929 365.366C586.21 357.411 599.892 343.31 608.498 326.484C618.59 306.754 618.772 281.844 611.826 261.081C605.425 241.949 590.594 224.36 572.372 215.574C567.626 213.285 562.42 211.029 557.271 209.875C544.787 207.076 532.073 207.636 519.369 207.632C506.792 207.629 494.215 207.632 481.639 207.71ZM598.65 737.75L518.547 737.997C517.613 746.855 518.217 756.223 518.304 765.148C518.479 783.1 518.903 801.03 518.966 818.987C519.041 839.97 518.596 860.968 518.865 881.946C518.96 889.346 518.384 897.126 519.25 904.449L520.209 904.818C537.44 884.445 555.189 864.506 572.393 844.096C578.89 836.388 586.026 828.976 591.862 820.75C594.244 817.392 596.32 813.584 597.649 809.677C598.605 806.866 598.705 803.698 599.011 800.75C600.111 790.154 599.508 779.164 599.509 768.512C599.509 761.424 599.542 754.337 599.562 747.249C599.569 744.763 600.059 741.131 599.538 738.75L599.178 737.874L598.65 737.75ZM424.531 737.75C423.422 744.97 424.042 753.035 424.018 760.362C423.985 770.515 424.08 780.668 424.318 790.818C424.464 797.054 424.18 804.162 425.912 810.182C427.358 815.207 431.56 820.667 434.624 824.878C439.622 831.749 492.83 897.039 494.75 897.411L494.503 738.053C479.699 736.756 464.263 737.556 449.385 737.553C441.467 737.552 432.341 736.682 424.531 737.75ZM664.178 511.75C662.404 514.678 663.577 607.353 663.901 616.405L686.329 616.506L693.144 608.544C695.199 606.291 699.973 602.105 700.982 599.431C701.547 597.931 701.403 595.078 701.42 593.482C701.467 589.238 701.459 584.993 701.457 580.749C701.451 565.291 701.9 549.582 701.188 534.154L701.012 523.542C695.135 520.27 688.787 516.922 683.523 512.733C681.054 510.768 667.579 511.353 664.178 511.75ZM352.111 511.282C349.083 511.443 344.949 511.255 342.058 512.015C338.79 512.874 335.442 515.8 332.689 517.684C329.454 519.899 325.863 521.936 322.291 523.559C322.284 543.865 322.192 564.133 322.899 584.432C323.041 588.508 322.327 593.905 323.087 597.825C323.303 598.937 324.479 600.33 325.114 601.249C327.713 605.008 330.83 608.411 333.391 612.177L336.558 616.406L359.882 616.486L359.968 511.106L352.111 511.282ZM507.944 116.129C500.752 118.112 495.756 120.756 491.49 127L491.091 127.569C489.605 129.77 488.311 133.13 487.806 135.734C486.928 140.266 487.498 145.888 487.481 150.566C487.446 160.016 487.204 169.549 487.56 178.989L517.842 179.034L536.301 179.407C536.377 170.834 536.402 162.26 536.387 153.687C536.375 146.826 537.114 139.419 534.661 132.918L534.412 132.243C532.133 126.194 528.009 120.995 521.998 118.334C517.185 116.204 513.144 115.876 507.944 116.129Z"/>
	<path transform="scale(0.5 0.5)" d="M540.073 261.188C543.021 260.777 546.372 261.048 549.367 261.042C555.652 261.029 564.3 260.181 570.082 262.703C573.233 264.077 576.572 267.04 577.766 270.329L578.002 271C578.378 271.931 578.832 272.739 579.003 273.75C579.57 277.091 578.375 281.037 576.24 283.639C573.316 287.203 569.607 289.003 565.125 289.545C559.37 289.58 553.615 289.608 547.86 289.618C542.418 289.627 535.83 290.6 531.174 287.261C527.522 284.641 525.26 280.831 524.572 276.404C524.07 273.168 525.476 269.497 527.413 266.956C530.744 262.587 535.047 261.879 540.073 261.188Z"/>
	<path transform="scale(0.5 0.5)" d="M460.014 261.148C464.774 260.652 469.715 260.814 474.5 260.815C479.866 260.817 487.437 260.178 492.278 262.812C495.763 264.708 499.018 268.818 500.02 272.707C500.854 275.945 500.035 279.889 498.145 282.645C495.406 286.639 491.374 288.513 486.793 289.497C481.023 289.602 475.243 289.58 469.472 289.598C464.095 289.615 457.401 290.554 452.676 287.598C449.479 285.597 446.767 281.765 445.963 278.08C445.167 274.436 445.491 270.858 447.701 267.75C450.953 263.175 454.829 262.059 460.014 261.148Z"/>
</svg>
